<?xml version="1.0" encoding="iso-8859-1"?>
<!-- Generator: Adobe Illustrator 16.0.0, SVG Export Plug-In . SVG Version: 6.00 Build 0)  -->
<!DOCTYPE svg PUBLIC "-//W3C//DTD SVG 1.1//EN" "http://www.w3.org/Graphics/SVG/1.1/DTD/svg11.dtd">
<svg version="1.1" id="Layer_1" xmlns="http://www.w3.org/2000/svg" xmlns:xlink="http://www.w3.org/1999/xlink" x="0px" y="0px"
	 width="175.564px" height="62.556px" viewBox="0 0 175.564 62.556" style="enable-background:new 0 0 175.564 62.556;"
	 xml:space="preserve">
<g>
	<g>
		<path style="fill:#3A474D;" d="M13.325,43.206H0v-2.124h13.325V43.206z M6.795,54.063c-0.779,0-1.504-0.123-2.177-0.371
			s-1.256-0.589-1.751-1.022c-0.496-0.434-0.889-0.956-1.181-1.566s-0.438-1.287-0.438-2.03s0.146-1.42,0.438-2.031
			c0.292-0.609,0.686-1.132,1.181-1.565c0.495-0.434,1.079-0.774,1.751-1.022c0.672-0.247,1.398-0.371,2.177-0.371
			c0.761,0,1.482,0.124,2.164,0.371c0.681,0.248,1.27,0.589,1.765,1.022c0.495,0.434,0.889,0.956,1.181,1.565
			c0.292,0.611,0.438,1.288,0.438,2.031s-0.146,1.42-0.438,2.03s-0.686,1.133-1.181,1.566c-0.496,0.434-1.084,0.774-1.765,1.022
			C8.277,53.939,7.556,54.063,6.795,54.063z M3.875,49.072c0,0.857,0.283,1.55,0.85,2.076c0.566,0.527,1.256,0.791,2.07,0.791
			s1.504-0.264,2.07-0.791c0.566-0.526,0.85-1.219,0.85-2.076s-0.283-1.55-0.85-2.076c-0.566-0.527-1.256-0.791-2.07-0.791
			s-1.504,0.264-2.07,0.791C4.158,47.522,3.875,48.215,3.875,49.072z M3.928,62.291v-6.637h2.681v4.46h12.343v2.177H3.928z
			 M5.149,38.508c0-0.46,0.159-0.85,0.478-1.168c0.319-0.318,0.708-0.479,1.168-0.479c0.46,0,0.85,0.16,1.168,0.479
			s0.478,0.708,0.478,1.168c0,0.461-0.16,0.85-0.478,1.168s-0.708,0.478-1.168,0.478c-0.46,0-0.849-0.159-1.168-0.478
			C5.309,39.357,5.149,38.969,5.149,38.508z M18.421,38.27v7.484h3.583v2.256h-3.583v8.441h-2.627V38.27H18.421z"/>
		<path style="fill:#3A474D;" d="M31.852,50.904V46.71h-8.043v-2.177h8.043v-2.973h-7.91v-2.177h10.564v4.247h5.07V38.27h2.628
			v13.006h-2.628v-5.389h-5.07v5.018H31.852z M42.204,53.133v9.424H27.313v-9.424H42.204z M39.523,60.38v-5.069h-9.529v5.069H39.523
			z"/>
		<path style="fill:#3A474D;" d="M63.412,50.691h-6.265v5.07h9.476v2.203H44.911v-2.203h9.502v-5.07h-6.291V40.021h15.29V50.691z
			 M60.705,42.224H50.83v6.265h9.875V42.224z"/>
		<path style="fill:#3A474D;" d="M79.577,39.118v10.007H68.481V39.118h2.628v3.026h5.84v-3.026H79.577z M76.949,47.002v-2.734h-5.84
			v2.734H76.949z M71.72,51.541h14.864v6.529H74.4v2.362h12.608v2.124H71.693v-6.609h12.184v-2.283H71.72V51.541z M86.584,38.27
			v11.679h-2.628V38.27H86.584z"/>
		<path style="fill:#3A474D;" d="M101.767,48.727h-7.91v4.672h12.29V38.27h2.654v23.49h-2.654v-6.131H91.176v-9.105h7.91V42.25
			h-7.91v-2.229h10.591V48.727z"/>
		<path style="fill:#3A474D;" d="M124.248,42.25h-8.201v4.273h7.937v2.203h-7.937v4.672h12.289V38.27h2.654v23.49h-2.654v-6.131
			h-14.97V40.021h10.882V42.25z"/>
	</g>
	<g>
		<path style="fill:#51B748;" d="M42.054,0L27.146,29.666h29.779L42.054,0z M42.054,8.23l8.908,17.774H33.147L42.054,8.23z"/>
		<g>
			<path style="fill:#ED1C24;" d="M161.41,14.268L147.259,0.152v29.514h28.306V0.152L161.41,14.268z M150.954,8.906l7.889,7.928
				l-7.889,7.888V8.906z M171.863,26.042h-17.169l17.169-17.136V26.042z"/>
		</g>
		<g>
			<path style="fill:#F79433;" d="M130.54,1.021c-8.006,0-14.494,6.49-14.494,14.494c0,8.005,6.488,14.496,14.494,14.496
				s14.496-6.491,14.496-14.496C145.036,7.512,138.546,1.021,130.54,1.021 M130.54,26.296c-5.955,0-10.781-4.825-10.781-10.78
				s4.826-10.781,10.781-10.781s10.783,4.826,10.783,10.781S136.495,26.296,130.54,26.296"/>
		</g>
		<g>
			<path style="fill:#7C51A1;" d="M103.921,26.177V4.93c3.246,0.564,6.115,2.604,7.701,5.621l3.32-1.695
				c-1.244-2.305-3.057-4.266-5.285-5.625c-2.264-1.436-4.906-2.189-7.584-2.189c-3.889,0-7.512,1.51-10.23,4.266
				c-2.756,2.717-4.225,6.377-4.225,10.229c0,3.887,1.469,7.51,4.225,10.226c2.719,2.754,6.342,4.231,10.23,4.231
				c2.678,0,5.32-0.722,7.584-2.155c2.229-1.357,4.041-3.322,5.285-5.622l-3.32-1.699C110.036,23.534,107.167,25.61,103.921,26.177
				 M100.222,26.177c-5.094-0.867-8.943-5.284-8.943-10.642c0-5.322,3.85-9.777,8.943-10.645V26.177z"/>
		</g>
		<g>
			<path style="fill:#00A5E5;" d="M70.448,1.322V11.59L58.522,0.381v29.291h15.625v-9.553l11.248,10.532V1.322H70.448z
				 M70.448,26.007H62.22V8.91l8.229,7.736V26.007z M81.696,22.119l-7.549-7.057V5.023h7.549V22.119z"/>
		</g>
		<g>
			<path style="fill:#034EA2;" d="M21.808,1.32v7.059H3.767V1.32H0.067v28.346h3.699v-7.021h18.041v7.021h3.736V1.32H21.808z
				 M21.808,18.945H3.767v-6.83h18.041V18.945z"/>
		</g>
	</g>
</g>
</svg>
